<svg width="24" height="24" viewBox="0 0 24 24" fill="none" xmlns="http://www.w3.org/2000/svg">
<path fill-rule="evenodd" clip-rule="evenodd" d="M2.24896 2.29248C1.8582 2.15509 1.43005 2.3605 1.29266 2.75126C1.15527 3.14203 1.36068 3.57018 1.75145 3.70757L2.01266 3.7994C2.68026 4.03412 3.11902 4.18967 3.44186 4.34808C3.74509 4.49686 3.87876 4.61729 3.96682 4.74615C4.05708 4.87824 4.12678 5.05966 4.16611 5.42301C4.20726 5.80322 4.20828 6.29843 4.20828 7.03838V9.76002C4.20828 11.2125 4.22191 12.2599 4.35897 13.0601C4.50529 13.9144 4.79742 14.526 5.34366 15.1022C5.93752 15.7285 6.69032 16.0012 7.58656 16.1283C8.44479 16.25 9.53464 16.25 10.8804 16.25H16.2861C17.0278 16.25 17.6518 16.25 18.1568 16.1882C18.6925 16.1227 19.1811 15.9793 19.6076 15.6318C20.0341 15.2842 20.2731 14.8346 20.4455 14.3232C20.6079 13.841 20.7339 13.2299 20.8836 12.5035L21.3925 10.0341L21.3935 10.0295L21.4039 9.97729C21.5686 9.1524 21.7071 8.45851 21.7416 7.9004C21.7777 7.3142 21.711 6.73619 21.3292 6.2398C21.0942 5.93438 20.7639 5.76147 20.4634 5.65589C20.1569 5.5482 19.8103 5.4859 19.4606 5.4468C18.7735 5.37 17.9389 5.37001 17.1203 5.37002H5.66809C5.6648 5.33327 5.66124 5.29712 5.6574 5.26159C5.60367 4.76521 5.48725 4.31249 5.20527 3.89985C4.92109 3.48399 4.54324 3.21765 4.10261 3.00145C3.69052 2.79925 3.16689 2.61517 2.55036 2.39844L2.24896 2.29248ZM5.70828 6.87002H17.089C17.9454 6.87002 18.6991 6.87102 19.2939 6.93751C19.5895 6.97055 19.8107 7.01645 19.9661 7.07107C20.0931 7.11571 20.1361 7.15216 20.1423 7.15743C20.1426 7.15765 20.1422 7.15732 20.1423 7.15743C20.2037 7.23884 20.2704 7.38654 20.2444 7.80799C20.217 8.25156 20.1005 8.84382 19.9229 9.73375L19.9225 9.73597L19.4237 12.1561C19.2623 12.9389 19.1537 13.4593 19.024 13.8441C18.9009 14.2095 18.7853 14.3669 18.66 14.469C18.5348 14.571 18.3573 14.6525 17.9746 14.6993C17.5714 14.7487 17.0399 14.75 16.2406 14.75H10.9377C9.5209 14.75 8.53783 14.7482 7.79716 14.6432C7.08235 14.5418 6.70473 14.3576 6.43219 14.0701C6.11202 13.7325 5.93933 13.4018 5.83744 12.8069C5.72628 12.1578 5.70828 11.249 5.70828 9.76002V6.87002Z" fill="black"/>
<path fill-rule="evenodd" clip-rule="evenodd" d="M7.50024 21.75C6.2576 21.75 5.25024 20.7426 5.25024 19.5C5.25024 18.2573 6.2576 17.25 7.50024 17.25C8.74289 17.25 9.75024 18.2573 9.75024 19.5C9.75024 20.7426 8.74289 21.75 7.50024 21.75ZM6.75024 19.5C6.75024 19.9142 7.08603 20.25 7.50024 20.25C7.91446 20.25 8.25024 19.9142 8.25024 19.5C8.25024 19.0858 7.91446 18.75 7.50024 18.75C7.08603 18.75 6.75024 19.0858 6.75024 19.5Z" fill="black"/>
<path fill-rule="evenodd" clip-rule="evenodd" d="M16.5002 21.7501C15.2576 21.7501 14.2502 20.7427 14.2502 19.5001C14.2502 18.2574 15.2576 17.2501 16.5002 17.2501C17.7428 17.2501 18.7502 18.2574 18.7502 19.5001C18.7502 20.7427 17.7428 21.7501 16.5002 21.7501ZM15.7502 19.5001C15.7502 19.9143 16.086 20.2501 16.5002 20.2501C16.9144 20.2501 17.2502 19.9143 17.2502 19.5001C17.2502 19.0859 16.9144 18.7501 16.5002 18.7501C16.086 18.7501 15.7502 19.0859 15.7502 19.5001Z" fill="black"/>
</svg>
