<svg width="25" height="25" viewBox="0 0 25 25" fill="none" xmlns="http://www.w3.org/2000/svg">
<path d="M3.125 9.37504H21.875M7.29167 15.625H9.375M6.45833 19.7917H18.5417C19.7084 19.7917 20.2919 19.7917 20.7375 19.5646C21.1295 19.3649 21.4482 19.0462 21.6479 18.6542C21.875 18.2086 21.875 17.6251 21.875 16.4584V8.54171C21.875 7.37494 21.875 6.79154 21.6479 6.34589C21.4482 5.95388 21.1295 5.63518 20.7375 5.43545C20.2919 5.20837 19.7084 5.20837 18.5417 5.20837H6.45833C5.29156 5.20837 4.70817 5.20837 4.26252 5.43545C3.87051 5.63518 3.5518 5.95388 3.35207 6.34589C3.125 6.79154 3.125 7.37493 3.125 8.54171V16.4584C3.125 17.6251 3.125 18.2086 3.35207 18.6542C3.5518 19.0462 3.87051 19.3649 4.26252 19.5646C4.70817 19.7917 5.29155 19.7917 6.45833 19.7917Z" stroke="black" stroke-width="2" stroke-linecap="round" stroke-linejoin="round"/>
</svg>
