<svg width="24" height="24" viewBox="0 0 24 24" fill="none" xmlns="http://www.w3.org/2000/svg">
<path d="M12 19.5C13.9891 19.5 15.8968 18.7098 17.3033 17.3033C18.7098 15.8968 19.5 13.9891 19.5 12C19.5 10.0109 18.7098 8.10322 17.3033 6.6967C15.8968 5.29018 13.9891 4.5 12 4.5C10.0109 4.5 8.10322 5.29018 6.6967 6.6967C5.29018 8.10322 4.5 10.0109 4.5 12C4.5 13.9891 5.29018 15.8968 6.6967 17.3033C8.10322 18.7098 10.0109 19.5 12 19.5Z" stroke="black" stroke-width="1.5" stroke-linecap="round" stroke-linejoin="round"/>
<path d="M12 4V2M4 12H2M12 20V22M20 12H22M12 15C12.7956 15 13.5587 14.6839 14.1213 14.1213C14.6839 13.5587 15 12.7956 15 12C15 11.2044 14.6839 10.4413 14.1213 9.87868C13.5587 9.31607 12.7956 9 12 9C11.2044 9 10.4413 9.31607 9.87868 9.87868C9.31607 10.4413 9 11.2044 9 12C9 12.7956 9.31607 13.5587 9.87868 14.1213C10.4413 14.6839 11.2044 15 12 15Z" stroke="black" stroke-width="1.5" stroke-linecap="round" stroke-linejoin="round"/>
</svg>
