<svg width="21" height="21" viewBox="0 0 21 21" fill="none" xmlns="http://www.w3.org/2000/svg">
<path fill-rule="evenodd" clip-rule="evenodd" d="M13.0959 3H7.48757C6.29077 3.00661 5.14562 3.48839 4.30405 4.33933C3.46248 5.19029 2.99341 6.34071 3.00007 7.5375V13.0458C2.99341 14.2426 3.46248 15.393 4.30405 16.244C5.14562 17.0949 6.29077 17.5768 7.48757 17.5833H13.0959C14.2927 17.5768 15.4378 17.0949 16.2794 16.244C17.121 15.393 17.59 14.2426 17.5834 13.0458V7.5375C17.59 6.34071 17.121 5.19029 16.2794 4.33933C15.4378 3.48839 14.2927 3.00661 13.0959 3Z" stroke="black" stroke-width="2" stroke-linecap="round" stroke-linejoin="round"/>
<path d="M6.86125 7.71876C6.50601 7.71876 6.21802 8.00675 6.21802 8.36199C6.21802 8.71723 6.50601 9.00522 6.86125 9.00522V7.71876ZM10.2918 9.00522C10.6471 9.00522 10.9351 8.71723 10.9351 8.36199C10.9351 8.00675 10.6471 7.71876 10.2918 7.71876V9.00522ZM9.64858 8.36199C9.64858 8.71723 9.93658 9.00522 10.2918 9.00522C10.6471 9.00522 10.9351 8.71723 10.9351 8.36199H9.64858ZM10.9351 6.86112C10.9351 6.50588 10.6471 6.2179 10.2918 6.2179C9.93658 6.2179 9.64858 6.50588 9.64858 6.86112H10.9351ZM10.2918 7.71876C9.93658 7.71876 9.64858 8.00675 9.64858 8.36199C9.64858 8.71723 9.93658 9.00522 10.2918 9.00522V7.71876ZM13.2936 9.00522C13.6488 9.00522 13.9368 8.71723 13.9368 8.36199C13.9368 8.00675 13.6488 7.71876 13.2936 7.71876V9.00522ZM13.2936 7.71876C12.9383 7.71876 12.6503 8.00675 12.6503 8.36199C12.6503 8.71723 12.9383 9.00522 13.2936 9.00522V7.71876ZM13.7224 9.00522C14.0776 9.00522 14.3656 8.71723 14.3656 8.36199C14.3656 8.00675 14.0776 7.71876 13.7224 7.71876V9.00522ZM13.8199 8.73172C14.0241 8.44108 13.9541 8.03989 13.6634 7.83567C13.3727 7.63146 12.9715 7.70154 12.7672 7.99222L13.8199 8.73172ZM9.66882 11.388C9.39798 11.6179 9.36487 12.0239 9.59481 12.2946C9.82474 12.5655 10.2307 12.5986 10.5014 12.3686L9.66882 11.388ZM7.97586 12.7791C7.6918 12.9924 7.63446 13.3956 7.84779 13.6797C8.06113 13.9637 8.46435 14.0211 8.7484 13.8077L7.97586 12.7791ZM10.5121 12.356C10.7778 12.1203 10.802 11.7137 10.5663 11.448C10.3306 11.1823 9.92397 11.158 9.65827 11.3937L10.5121 12.356ZM9.57911 12.2721C9.7985 12.5515 10.2028 12.6002 10.4823 12.3809C10.7617 12.1615 10.8104 11.7572 10.5911 11.4777L9.57911 12.2721ZM9.59361 9.81715C9.44995 9.49219 9.0701 9.34536 8.74523 9.48902C8.42031 9.63267 8.27341 10.0125 8.41709 10.3374L9.59361 9.81715ZM10.6013 11.4944C10.3892 11.2094 9.98632 11.1502 9.70124 11.3622C9.41625 11.5742 9.35698 11.9771 9.56899 12.2622L10.6013 11.4944ZM11.9172 14.289C12.2302 14.457 12.6202 14.3396 12.7883 14.0265C12.9563 13.7136 12.8389 13.3236 12.5259 13.1555L11.9172 14.289ZM6.86125 9.00522H10.2918V7.71876H6.86125V9.00522ZM10.9351 8.36199V6.86112H9.64858V8.36199H10.9351ZM10.2918 9.00522H13.2936V7.71876H10.2918V9.00522ZM13.2936 9.00522H13.7224V7.71876H13.2936V9.00522ZM12.7672 7.99222C11.8828 9.25111 10.8417 10.3922 9.66882 11.388L10.5014 12.3686C11.7575 11.3021 12.8726 10.08 13.8199 8.73172L12.7672 7.99222ZM8.7484 13.8077C9.18648 13.4788 9.82269 12.9676 10.5121 12.356L9.65827 11.3937C8.9942 11.9829 8.38512 12.4717 7.97586 12.7791L8.7484 13.8077ZM10.5911 11.4777C10.1909 10.9678 9.85579 10.4099 9.59361 9.81715L8.41709 10.3374C8.7225 11.028 9.1129 11.678 9.57911 12.2721L10.5911 11.4777ZM9.56899 12.2622C10.1935 13.1019 10.9953 13.7938 11.9172 14.289L12.5259 13.1555C11.7702 12.7498 11.1132 12.1826 10.6013 11.4944L9.56899 12.2622Z" fill="black"/>
</svg>
