<svg width="26" height="26" viewBox="0 0 26 26" fill="none" xmlns="http://www.w3.org/2000/svg">
<path fill-rule="evenodd" clip-rule="evenodd" d="M9.29834 12.5124C9.29834 13.617 8.40291 14.5124 7.29834 14.5124C6.19377 14.5124 5.29834 13.617 5.29834 12.5124C5.29834 11.4078 6.19377 10.5124 7.29834 10.5124C7.82877 10.5124 8.33748 10.7231 8.71255 11.0982C9.08763 11.4733 9.29834 11.982 9.29834 12.5124Z" stroke="black" stroke-linecap="round" stroke-linejoin="round"/>
<path fill-rule="evenodd" clip-rule="evenodd" d="M15.2983 12.5124C15.2983 13.617 14.4029 14.5124 13.2983 14.5124C12.1937 14.5124 11.2983 13.617 11.2983 12.5124C11.2983 11.4078 12.1937 10.5124 13.2983 10.5124C14.4029 10.5124 15.2983 11.4078 15.2983 12.5124Z" stroke="black" stroke-linecap="round" stroke-linejoin="round"/>
<path fill-rule="evenodd" clip-rule="evenodd" d="M21.2983 12.5124C21.2983 13.617 20.4029 14.5124 19.2983 14.5124C18.1937 14.5124 17.2983 13.617 17.2983 12.5124C17.2983 11.4078 18.1937 10.5124 19.2983 10.5124C20.4029 10.5124 21.2983 11.4078 21.2983 12.5124Z" stroke="black" stroke-linecap="round" stroke-linejoin="round"/>
</svg>
