<svg width="26" height="26" viewBox="0 0 26 26" fill="none" xmlns="http://www.w3.org/2000/svg">
<path d="M13.0697 16.8091C13.4817 16.8091 13.8845 16.9313 14.2271 17.1602C14.5697 17.3891 14.8367 17.7145 14.9944 18.0952C15.1521 18.4758 15.1934 18.8947 15.113 19.2989C15.0326 19.703 14.8342 20.0742 14.5428 20.3656C14.2514 20.6569 13.8802 20.8553 13.4761 20.9357C13.072 21.0161 12.6531 20.9748 12.2724 20.8172C11.8917 20.6595 11.5664 20.3925 11.3374 20.0499C11.1085 19.7073 10.9863 19.3045 10.9863 18.8924C10.9863 18.3399 11.2058 17.81 11.5965 17.4193C11.9872 17.0286 12.5171 16.8091 13.0697 16.8091ZM10.9863 6.39242C10.9863 6.80446 11.1085 7.20725 11.3374 7.54985C11.5664 7.89246 11.8917 8.15948 12.2724 8.31716C12.6531 8.47485 13.072 8.5161 13.4761 8.43572C13.8802 8.35533 14.2514 8.15691 14.5428 7.86555C14.8342 7.5742 15.0326 7.20298 15.113 6.79885C15.1934 6.39473 15.1521 5.97584 14.9944 5.59516C14.8367 5.21448 14.5697 4.88911 14.2271 4.66019C13.8845 4.43127 13.4817 4.30908 13.0697 4.30908C12.5171 4.30908 11.9872 4.52858 11.5965 4.91928C11.2058 5.30998 10.9863 5.83988 10.9863 6.39242ZM10.9863 12.6424C10.9863 13.0545 11.1085 13.4573 11.3374 13.7999C11.5664 14.1425 11.8917 14.4095 12.2724 14.5672C12.6531 14.7248 13.072 14.7661 13.4761 14.6857C13.8802 14.6053 14.2514 14.4069 14.5428 14.1156C14.8342 13.8242 15.0326 13.453 15.113 13.0489C15.1934 12.6447 15.1521 12.2258 14.9944 11.8452C14.8367 11.4645 14.5697 11.1391 14.2271 10.9102C13.8845 10.6813 13.4817 10.5591 13.0697 10.5591C12.5171 10.5591 11.9872 10.7786 11.5965 11.1693C11.2058 11.56 10.9863 12.0899 10.9863 12.6424Z" fill="black"/>
</svg>
