<svg width="24" height="24" viewBox="0 0 24 24" fill="none" xmlns="http://www.w3.org/2000/svg">
<path d="M12 22C6.48 22 2 17.52 2 12C2 6.48 6.48 2 12 2C17.52 2 22 6.48 22 12C22 17.52 17.52 22 12 22Z" stroke="#292D32" stroke-width="1.5" stroke-linecap="round" stroke-linejoin="round"/>
<path d="M11.233 14.5455V14.4943C11.2386 13.9517 11.2955 13.5199 11.4034 13.1989C11.5114 12.8778 11.6648 12.6179 11.8636 12.419C12.0625 12.2202 12.3011 12.0369 12.5795 11.8693C12.7472 11.767 12.8977 11.6463 13.0312 11.5071C13.1648 11.3651 13.2699 11.2017 13.3466 11.017C13.4261 10.8324 13.4659 10.6278 13.4659 10.4034C13.4659 10.125 13.4006 9.88352 13.2699 9.67898C13.1392 9.47443 12.9645 9.31676 12.7457 9.20597C12.527 9.09517 12.2841 9.03977 12.017 9.03977C11.7841 9.03977 11.5597 9.08807 11.3438 9.18466C11.1278 9.28125 10.9474 9.43324 10.8026 9.64062C10.6577 9.84801 10.5739 10.1193 10.5511 10.4545H9.47727C9.5 9.97159 9.625 9.55824 9.85227 9.21449C10.0824 8.87074 10.3849 8.60795 10.7599 8.42614C11.1378 8.24432 11.5568 8.15341 12.017 8.15341C12.517 8.15341 12.9517 8.25284 13.321 8.4517C13.6932 8.65057 13.9801 8.9233 14.1818 9.26989C14.3864 9.61648 14.4886 10.0114 14.4886 10.4545C14.4886 10.767 14.4403 11.0497 14.3438 11.3026C14.25 11.5554 14.1136 11.7812 13.9347 11.9801C13.7585 12.179 13.5455 12.3551 13.2955 12.5085C13.0455 12.6648 12.8452 12.8295 12.6946 13.0028C12.544 13.1733 12.4347 13.3764 12.3665 13.6122C12.2983 13.848 12.2614 14.142 12.2557 14.4943V14.5455H11.233ZM11.7784 17.0682C11.5682 17.0682 11.3878 16.9929 11.2372 16.8423C11.0866 16.6918 11.0114 16.5114 11.0114 16.3011C11.0114 16.0909 11.0866 15.9105 11.2372 15.7599C11.3878 15.6094 11.5682 15.5341 11.7784 15.5341C11.9886 15.5341 12.169 15.6094 12.3196 15.7599C12.4702 15.9105 12.5455 16.0909 12.5455 16.3011C12.5455 16.4403 12.5099 16.5682 12.4389 16.6847C12.3707 16.8011 12.2784 16.8949 12.1619 16.9659C12.0483 17.0341 11.9205 17.0682 11.7784 17.0682Z" fill="black"/>
</svg>
