<svg width="26" height="26" viewBox="0 0 26 26" fill="none" xmlns="http://www.w3.org/2000/svg">
<path d="M13.2151 16.1736C14.941 16.1736 16.3401 14.7745 16.3401 13.0486C16.3401 11.3227 14.941 9.92358 13.2151 9.92358C11.4892 9.92358 10.0901 11.3227 10.0901 13.0486C10.0901 14.7745 11.4892 16.1736 13.2151 16.1736Z" stroke="black" stroke-width="2"/>
<path d="M4.52888 11.6311C5.02112 11.9403 5.33783 12.4672 5.33783 13.0485C5.33782 13.6298 5.02111 14.1567 4.52888 14.466C4.19392 14.6764 3.97811 14.8446 3.82456 15.0447C3.4882 15.4831 3.33975 16.0371 3.41188 16.5849C3.46596 16.9958 3.70864 17.4161 4.19399 18.2568C4.67936 19.0974 4.92203 19.5177 5.25079 19.77C5.68915 20.1064 6.24317 20.2548 6.79098 20.1827C7.04101 20.1498 7.29456 20.047 7.64423 19.8622C8.15827 19.5905 8.773 19.5797 9.27651 19.8704C9.77997 20.1612 10.0779 20.6989 10.0996 21.2798C10.1144 21.6751 10.1522 21.9462 10.2487 22.1792C10.4601 22.6896 10.8657 23.0952 11.3761 23.3067C11.7591 23.4652 12.2444 23.4652 13.2151 23.4652C14.1858 23.4652 14.6711 23.4652 15.0541 23.3067C15.5645 23.0952 15.9701 22.6896 16.1816 22.1792C16.278 21.9462 16.3158 21.6751 16.3306 21.2799C16.3523 20.6989 16.6502 20.1612 17.1538 19.8704C17.6572 19.5798 18.2719 19.5906 18.7858 19.8623C19.1356 20.0471 19.3892 20.1499 19.6392 20.1828C20.187 20.255 20.741 20.1065 21.1794 19.7701C21.5081 19.5179 21.7508 19.0975 22.2363 18.2569C22.4523 17.8826 22.6203 17.5917 22.7449 17.3477M21.9013 14.4661C21.4091 14.1568 21.0924 13.6299 21.0923 13.0487C21.0923 12.4673 21.4091 11.9403 21.9013 11.6311C22.2363 11.4206 22.452 11.2524 22.6055 11.0523C22.9419 10.614 23.0903 10.0599 23.0182 9.51213C22.9642 9.10127 22.7215 8.68094 22.236 7.84028C21.7507 6.99962 21.508 6.57929 21.1793 6.32702C20.7409 5.99066 20.1869 5.84221 19.6391 5.91432C19.3891 5.94725 19.1355 6.05002 18.7858 6.23485C18.2718 6.50652 17.6571 6.51736 17.1536 6.22665C16.6502 5.93596 16.3523 5.39825 16.3306 4.81735C16.3158 4.42202 16.278 4.15101 16.1816 3.91797C15.9701 3.4075 15.5645 3.00193 15.0541 2.79048C14.6711 2.6319 14.1858 2.6319 13.2151 2.6319C12.2444 2.6319 11.7591 2.6319 11.3761 2.79048C10.8657 3.00193 10.4601 3.4075 10.2487 3.91797C10.1522 4.15099 10.1144 4.42198 10.0996 4.81725C10.0779 5.39821 9.77995 5.93597 9.27647 6.22665C8.77299 6.51733 8.15831 6.50647 7.64432 6.23481C7.29462 6.04998 7.04104 5.9472 6.79099 5.91427C6.24318 5.84216 5.68916 5.99061 5.2508 6.32697C4.92204 6.57924 4.67937 6.99957 4.194 7.84023C3.97793 8.21449 3.80995 8.50543 3.68529 8.74932" stroke="black" stroke-width="2" stroke-linecap="round"/>
</svg>
